<!DOCTYPE svg PUBLIC "-//W3C//DTD SVG 1.1//EN" "http://www.w3.org/Graphics/SVG/1.1/DTD/svg11.dtd">
<!-- Uploaded to: SVG Repo, www.svgrepo.com, Transformed by: SVG Repo Mixer Tools -->
<svg fill="#ffffff" width="800px" height="800px" viewBox="0 0 32 32" version="1.1" xmlns="http://www.w3.org/2000/svg" stroke="#ffffff">
<g id="SVGRepo_bgCarrier" stroke-width="0"/>
<g id="SVGRepo_tracerCarrier" stroke-linecap="round" stroke-linejoin="round"/>
<g id="SVGRepo_iconCarrier"> <title>libra</title> <path d="M2.14 23.775h27.657v5.176h-27.657v-5.176zM18.267 19.604v-3.185c1.539-0.836 2.554-2.406 2.554-4.209 0-2.641-2.178-4.782-4.863-4.782s-4.863 2.141-4.863 4.782c0 1.781 0.99 3.335 2.459 4.158v3.236l-0.019 1.97h-11.395v-5.176h4.132c-0.623-1.278-0.971-2.7-0.971-4.199 0-5.556 4.775-10.060 10.666-10.060s10.666 4.504 10.666 10.060c0 1.499-0.347 2.921-0.971 4.199h4.133v5.176h-11.529l-0.001-1.97z"/> </g>
</svg>