<?xml version="1.0" encoding="utf-8"?><!-- Uploaded to: SVG Repo, www.svgrepo.com, Generator: SVG Repo Mixer Tools -->
<svg width="800px" height="800px" viewBox="0 0 400 400" fill="none" xmlns="http://www.w3.org/2000/svg">
<path d="M194.738 132.519C194.637 119.327 163.359 99.2517 150.446 94.9477C56.5563 63.6508 99.7415 189.257 66.1394 235.459C46.074 263.049 31.1268 223.726 39.2591 209.494" stroke="#000000" stroke-opacity="0.9" stroke-width="16" stroke-linecap="round" stroke-linejoin="round"/>
<path d="M218.869 124.271C230.241 108.895 260.412 90.3651 288.208 90.0595C318.756 89.7238 335.254 116.666 340.747 149.624C345.208 176.387 330.534 229.998 341.358 251.648C345.471 259.873 362.435 234.509 362.435 231.487" stroke="#000000" stroke-opacity="0.9" stroke-width="16" stroke-linecap="round" stroke-linejoin="round"/>
<path d="M138.294 169.934C114.676 147.473 76.247 169.45 128.913 199.286" stroke="#000000" stroke-opacity="0.9" stroke-width="16" stroke-linecap="round" stroke-linejoin="round"/>
<path d="M271.713 168.273C306.257 145.168 340.236 171.761 280.266 195.749" stroke="#000000" stroke-opacity="0.9" stroke-width="16" stroke-linecap="round" stroke-linejoin="round"/>
<path d="M191.989 256.84C199.186 261.734 208.975 260.2 215.509 257.313" stroke="#000000" stroke-opacity="0.9" stroke-width="16" stroke-linecap="round" stroke-linejoin="round"/>
<path d="M189.646 280.23C199.089 281.097 199.651 273.722 202.68 273.64C205.107 273.575 206.829 283.398 215.509 277.611" stroke="#000000" stroke-opacity="0.9" stroke-width="16" stroke-linecap="round" stroke-linejoin="round"/>
<path d="M253.24 205.523C254.291 200.682 254.156 195.772 254.156 190.861" stroke="#000000" stroke-opacity="0.9" stroke-width="16" stroke-linecap="round" stroke-linejoin="round"/>
<path d="M152.025 209.457C152.025 205.524 151.976 199.291 151.976 192.093" stroke="#000000" stroke-opacity="0.9" stroke-width="16" stroke-linecap="round" stroke-linejoin="round"/>
<path d="M159.736 274.557C159.736 300.805 183.439 309.715 201.457 310.295C218.868 310.856 242.973 307.279 245.748 280.361" stroke="#000000" stroke-opacity="0.9" stroke-width="16" stroke-linecap="round" stroke-linejoin="round"/>
<path d="M107.986 122.439C110.224 118.928 112.684 114.086 117.15 112.969C151.233 104.449 180.533 207.066 159.735 243.462" stroke="#000000" stroke-opacity="0.9" stroke-width="16" stroke-linecap="round" stroke-linejoin="round"/>
<path d="M307.12 119.83C295.013 114.372 277.445 115.304 269.017 122.679C247.965 141.099 235.156 186.848 237.196 215.603C238.348 231.844 241.361 237.333 246.993 252.351" stroke="#000000" stroke-opacity="0.9" stroke-width="16" stroke-linecap="round" stroke-linejoin="round"/>
<path d="M194.22 135.26C189.737 144.523 186.625 148.1 178.828 153.951" stroke="#000000" stroke-opacity="0.9" stroke-width="16" stroke-linecap="round" stroke-linejoin="round"/>
<path d="M218.408 127.564C220.601 133.549 225.554 140.757 230.502 144.056" stroke="#000000" stroke-opacity="0.9" stroke-width="16" stroke-linecap="round" stroke-linejoin="round"/>
<path d="M37.4272 214.076C39.8182 223.812 37.838 237.171 43.8421 245.844C47.3541 250.917 50.2127 260.593 55.4495 263.866C74.4347 275.732 106.802 203.786 112.161 195.749" stroke="#000000" stroke-opacity="0.9" stroke-width="16" stroke-linecap="round" stroke-linejoin="round"/>
<path d="M308.673 195.444C315.245 215.815 341.052 320.376 362.434 235.459" stroke="#000000" stroke-opacity="0.9" stroke-width="16" stroke-linecap="round" stroke-linejoin="round"/>
</svg>