<!DOCTYPE svg PUBLIC "-//W3C//DTD SVG 1.1//EN" "http://www.w3.org/Graphics/SVG/1.1/DTD/svg11.dtd">
<!-- Uploaded to: SVG Repo, www.svgrepo.com, Transformed by: SVG Repo Mixer Tools -->
<svg width="800px" height="800px" viewBox="0 0 960 960" fill="none" xmlns="http://www.w3.org/2000/svg">
<g id="SVGRepo_bgCarrier" stroke-width="0"/>
<g id="SVGRepo_tracerCarrier" stroke-linecap="round" stroke-linejoin="round"/>
<g id="SVGRepo_iconCarrier"> <g clip-path="url(#clip0_1313_6310)"> <path d="M365.093 430.144C292.335 374.889 281.992 288.844 231.769 219.302C206.259 186.874 165.72 162.647 123.653 174.924C72.178 184.281 63.979 119.3 111.128 104.553C179.266 80.5969 251.304 116.41 293.005 170.387C363.128 257.583 367.671 404.251 513.989 395.822C664.994 366.186 635.365 114.9 835.508 86.1268C882.544 77.9268 899.733 151.174 850.029 164.085C817.241 171.049 789.044 186.027 767.969 211.994C712.307 282.923 688.513 378.322 616.235 435.859C783.114 545.004 707.552 843.465 513.324 870.315C229.507 912.514 153.074 582.13 365.093 430.144ZM631.927 615.636C623.494 518.533 585.067 504.074 501.893 474.904C490.976 474.366 479.843 472.984 468.876 473.057C374.074 475.705 314.945 580.278 320.762 668.314C323.757 725.076 364.798 772.048 417.936 789.122C538.32 826.148 629.105 733.987 631.927 615.636Z" fill="#ffffff"/> </g> <defs> <clipPath id="clip0_1313_6310"> <rect width="800.001" height="790" fill="white" transform="translate(80 85)"/> </clipPath> </defs> </g>
</svg>